<?xml version="1.0" standalone="no"?>
<!DOCTYPE svg PUBLIC "-//W3C//DTD SVG 20010904//EN"
 "http://www.w3.org/TR/2001/REC-SVG-20010904/DTD/svg10.dtd">
<svg version="1.0" xmlns="http://www.w3.org/2000/svg"
 width="1024.000000pt" height="1024.000000pt" viewBox="0 0 1024.000000 1024.000000"
 preserveAspectRatio="xMidYMid meet">

<g transform="translate(0.000000,1024.000000) scale(0.100000,-0.100000)"
fill="#000000" stroke="none">
<path d="M4167 7669 c-73 -17 -140 -68 -172 -129 -8 -15 -87 -306 -175 -647
-89 -340 -185 -712 -215 -828 -31 -115 -98 -374 -150 -575 -52 -200 -95 -383
-95 -405 1 -84 63 -165 151 -199 40 -15 139 -16 1104 -14 l1060 3 41 22 c44
24 104 85 128 132 9 16 38 117 65 223 60 233 349 1364 467 1824 57 225 84 349
84 388 0 88 -38 149 -120 192 -33 18 -81 19 -1085 21 -596 1 -1066 -3 -1088
-8z m1664 -598 c24 -24 29 -38 29 -75 0 -44 -4 -51 -87 -143 -245 -272 -1013
-1088 -1061 -1126 -12 -11 -40 -21 -61 -24 -75 -10 -93 8 -288 275 -306 419
-293 399 -293 444 0 101 95 167 179 124 15 -8 67 -59 116 -113 186 -204 237
-252 272 -259 51 -10 79 2 146 63 50 45 598 556 869 810 51 48 61 53 103 53
38 0 52 -5 76 -29z m-85 -799 c54 -43 58 -100 10 -148 -40 -40 -89 -46 -129
-14 -33 26 -51 79 -38 112 23 61 110 88 157 50z m-83 -453 c46 -50 32 -126
-30 -158 -66 -34 -143 18 -143 96 0 37 25 72 64 88 41 18 75 10 109 -26z
m-133 -428 c14 -10 29 -34 34 -53 12 -47 -9 -88 -56 -111 -32 -16 -43 -17 -73
-7 -45 15 -65 44 -65 95 1 89 86 129 160 76z"/>
<path d="M1100 4354 c-157 -41 -278 -140 -349 -285 -59 -120 -74 -191 -74
-334 0 -189 46 -323 149 -435 203 -219 561 -237 778 -39 81 74 130 158 149
257 l7 32 -128 0 -127 0 -17 -48 c-19 -53 -71 -113 -121 -139 -19 -10 -65 -18
-114 -21 -74 -4 -88 -2 -137 22 -125 61 -196 199 -196 381 0 245 128 405 324
405 68 0 146 -30 182 -71 26 -28 64 -98 64 -116 0 -10 32 -13 131 -13 l132 0
-7 43 c-10 67 -72 182 -129 240 -89 91 -215 137 -372 136 -49 0 -115 -7 -145
-15z"/>
<path d="M6890 3755 l0 -615 283 0 c311 0 380 9 468 57 118 64 176 172 166
308 -9 122 -70 216 -173 266 l-45 21 49 34 c94 63 127 130 120 246 -7 121 -58
196 -172 249 -88 41 -161 49 -443 49 l-253 0 0 -615z m560 390 c48 -28 72 -75
72 -136 0 -55 -17 -87 -66 -123 -24 -19 -45 -21 -177 -24 l-149 -4 0 157 0
157 143 -3 c120 -4 147 -7 177 -24z m39 -500 c58 -34 76 -68 76 -140 0 -75
-20 -109 -81 -140 -33 -17 -63 -21 -196 -23 l-158 -4 0 167 0 167 163 -4 c140
-3 167 -6 196 -23z"/>
<path d="M4790 4150 l0 -119 -81 -3 -81 -3 -1 -93 -2 -92 83 0 82 0 0 -251 c0
-170 4 -265 12 -293 19 -62 91 -130 157 -150 55 -16 166 -21 233 -10 l37 6 3
95 3 95 -55 -2 c-94 -4 -110 -1 -135 25 l-25 24 0 231 0 230 108 0 107 0 -2
92 -1 93 -106 3 -106 3 0 119 0 120 -115 0 -115 0 0 -120z"/>
<path d="M8940 4150 l0 -119 -76 -3 -76 -3 -1 -93 -2 -92 77 0 76 0 4 -257 3
-258 28 -56 c29 -60 76 -100 144 -125 39 -14 187 -19 242 -8 l31 7 0 94 0 95
-52 -3 c-88 -4 -108 0 -133 26 l-25 24 0 231 0 230 105 0 105 0 0 95 0 95
-105 0 -105 0 0 120 0 120 -120 0 -120 0 0 -120z"/>
<path d="M2139 4032 c-195 -51 -309 -215 -309 -444 0 -110 14 -178 53 -251
100 -189 363 -269 572 -173 68 31 153 110 189 176 49 90 68 242 46 361 -48
254 -290 399 -551 331z m243 -214 c53 -40 79 -103 85 -202 7 -101 -13 -180
-60 -232 -39 -46 -82 -64 -147 -64 -128 0 -200 95 -200 265 0 123 37 207 108
245 57 31 166 24 214 -12z"/>
<path d="M5602 4033 c-130 -31 -247 -145 -289 -281 -27 -88 -25 -268 5 -352
68 -196 261 -304 479 -270 149 23 265 121 307 258 7 22 7 22 -106 22 l-113 -1
-20 -31 c-41 -63 -141 -87 -222 -53 -68 29 -99 71 -112 156 l-8 49 298 0 299
0 0 84 c0 222 -121 384 -318 425 -69 14 -122 13 -200 -6z m215 -189 c36 -26
73 -99 73 -141 l0 -33 -182 2 -183 3 4 30 c7 62 45 116 106 149 42 23 145 17
182 -10z"/>
<path d="M8242 4039 c-154 -30 -276 -147 -317 -304 -19 -73 -19 -232 -1 -300
44 -166 169 -277 341 -305 150 -24 293 22 380 122 30 35 85 133 85 153 0 3
-51 5 -114 5 l-114 0 -22 -34 c-28 -46 -90 -70 -165 -64 -91 8 -155 73 -171
176 l-7 42 302 0 301 0 0 73 c0 142 -46 263 -126 337 -98 90 -234 126 -372 99z
m195 -196 c38 -28 62 -71 69 -127 l7 -46 -184 2 -184 3 3 29 c7 61 47 119 107
151 42 23 145 16 182 -12z"/>
<path d="M4111 4023 c-26 -9 -65 -36 -93 -64 l-48 -48 0 59 0 60 -110 0 -110
0 0 -445 0 -445 115 0 115 0 0 273 c0 243 2 276 19 312 60 130 226 144 295 25
20 -33 21 -54 24 -322 l3 -288 115 0 115 0 -3 333 c-3 302 -5 337 -23 382 -27
68 -106 147 -169 168 -62 21 -185 21 -245 0z"/>
<path d="M6616 4024 c-51 -18 -103 -58 -127 -98 l-19 -31 0 36 c0 20 -3 51 -6
68 l-6 31 -114 0 -114 0 0 -445 0 -445 120 0 119 0 3 263 3 264 27 40 c38 58
130 103 210 103 l58 0 0 115 0 115 -57 -1 c-32 0 -76 -7 -97 -15z"/>
<path d="M2810 3711 c0 -294 2 -324 21 -386 26 -85 80 -143 165 -175 77 -29
207 -25 269 7 41 22 83 62 103 98 9 16 11 7 12 -47 l0 -68 115 0 116 0 -3 443
-3 442 -115 0 -115 0 -2 -260 c-2 -143 -7 -277 -13 -297 -22 -78 -87 -128
-167 -128 -63 0 -109 28 -133 83 -18 38 -20 68 -20 325 l0 282 -115 0 -115 0
0 -319z"/>
</g>
</svg>
